<mxfile host="app.diagrams.net" modified="2020-06-11T12:33:33.347Z" agent="5.0 (Windows NT 10.0; WOW64) AppleWebKit/537.36 (KHTML, like Gecko) Chrome/83.0.4103.97 Safari/537.36" etag="00xj3eaJFvKaSYA3GDLJ" version="13.2.1" type="github">
  <diagram id="eba8B-yQrMoiP7bQ-sxB" name="Page-1">
    <mxGraphModel dx="866" dy="522" grid="1" gridSize="10" guides="1" tooltips="1" connect="1" arrows="1" fold="1" page="1" pageScale="1" pageWidth="827" pageHeight="1169" math="0" shadow="0">
      <root>
        <mxCell id="0" />
        <mxCell id="1" parent="0" />
        <mxCell id="vvAao26VKhlbJRDWfg8w-8" style="edgeStyle=orthogonalEdgeStyle;rounded=0;orthogonalLoop=1;jettySize=auto;html=1;exitX=0.5;exitY=1;exitDx=0;exitDy=0;" edge="1" parent="1" source="vvAao26VKhlbJRDWfg8w-1" target="vvAao26VKhlbJRDWfg8w-2">
          <mxGeometry relative="1" as="geometry" />
        </mxCell>
        <mxCell id="vvAao26VKhlbJRDWfg8w-1" value="COMS2015A;&lt;br&gt;&lt;font style=&quot;font-size: 14px&quot;&gt;&lt;b&gt;Initial&lt;/b&gt;&lt;/font&gt;" style="rounded=1;whiteSpace=wrap;html=1;" vertex="1" parent="1">
          <mxGeometry x="70" y="30" width="120" height="60" as="geometry" />
        </mxCell>
        <mxCell id="vvAao26VKhlbJRDWfg8w-9" style="edgeStyle=orthogonalEdgeStyle;rounded=0;orthogonalLoop=1;jettySize=auto;html=1;exitX=1;exitY=0.5;exitDx=0;exitDy=0;entryX=0;entryY=0.5;entryDx=0;entryDy=0;" edge="1" parent="1" source="vvAao26VKhlbJRDWfg8w-2" target="vvAao26VKhlbJRDWfg8w-3">
          <mxGeometry relative="1" as="geometry" />
        </mxCell>
        <mxCell id="vvAao26VKhlbJRDWfg8w-28" style="edgeStyle=orthogonalEdgeStyle;rounded=0;orthogonalLoop=1;jettySize=auto;html=1;exitX=0.5;exitY=1;exitDx=0;exitDy=0;entryX=0;entryY=0.75;entryDx=0;entryDy=0;" edge="1" parent="1" source="vvAao26VKhlbJRDWfg8w-2" target="vvAao26VKhlbJRDWfg8w-7">
          <mxGeometry relative="1" as="geometry" />
        </mxCell>
        <mxCell id="vvAao26VKhlbJRDWfg8w-2" value="&lt;br&gt;&lt;br&gt;&lt;span style=&quot;color: rgb(0 , 0 , 0) ; font-family: &amp;#34;helvetica&amp;#34; ; font-size: 12px ; font-style: normal ; font-weight: 400 ; letter-spacing: normal ; text-align: center ; text-indent: 0px ; text-transform: none ; word-spacing: 0px ; background-color: rgb(248 , 249 , 250) ; display: inline ; float: none&quot;&gt;COMS2015A;&lt;/span&gt;&lt;br style=&quot;color: rgb(0 , 0 , 0) ; font-family: &amp;#34;helvetica&amp;#34; ; font-size: 12px ; font-style: normal ; font-weight: 400 ; letter-spacing: normal ; text-align: center ; text-indent: 0px ; text-transform: none ; word-spacing: 0px ; background-color: rgb(248 , 249 , 250)&quot;&gt;&lt;font face=&quot;helvetica&quot;&gt;&lt;span style=&quot;font-size: 14px&quot;&gt;&lt;b&gt;Proposed&lt;/b&gt;&lt;/span&gt;&lt;/font&gt;&lt;br&gt;" style="rounded=1;whiteSpace=wrap;html=1;" vertex="1" parent="1">
          <mxGeometry x="70" y="190" width="120" height="60" as="geometry" />
        </mxCell>
        <mxCell id="vvAao26VKhlbJRDWfg8w-13" style="edgeStyle=orthogonalEdgeStyle;rounded=0;orthogonalLoop=1;jettySize=auto;html=1;exitX=1;exitY=0.5;exitDx=0;exitDy=0;entryX=0;entryY=0.5;entryDx=0;entryDy=0;" edge="1" parent="1" source="vvAao26VKhlbJRDWfg8w-3" target="vvAao26VKhlbJRDWfg8w-4">
          <mxGeometry relative="1" as="geometry" />
        </mxCell>
        <mxCell id="vvAao26VKhlbJRDWfg8w-29" style="edgeStyle=orthogonalEdgeStyle;rounded=0;orthogonalLoop=1;jettySize=auto;html=1;exitX=0.5;exitY=1;exitDx=0;exitDy=0;" edge="1" parent="1" source="vvAao26VKhlbJRDWfg8w-3">
          <mxGeometry relative="1" as="geometry">
            <mxPoint x="420" y="620" as="targetPoint" />
          </mxGeometry>
        </mxCell>
        <mxCell id="vvAao26VKhlbJRDWfg8w-3" value="&lt;span&gt;COMS2015A;&lt;/span&gt;&lt;br&gt;&lt;span style=&quot;font-size: 14px&quot;&gt;&lt;b&gt;Scheduled&lt;/b&gt;&lt;/span&gt;" style="rounded=1;whiteSpace=wrap;html=1;" vertex="1" parent="1">
          <mxGeometry x="360" y="190" width="120" height="60" as="geometry" />
        </mxCell>
        <mxCell id="vvAao26VKhlbJRDWfg8w-15" style="edgeStyle=orthogonalEdgeStyle;rounded=0;orthogonalLoop=1;jettySize=auto;html=1;exitX=0.25;exitY=1;exitDx=0;exitDy=0;entryX=0.167;entryY=-0.067;entryDx=0;entryDy=0;entryPerimeter=0;" edge="1" parent="1" source="vvAao26VKhlbJRDWfg8w-4" target="vvAao26VKhlbJRDWfg8w-5">
          <mxGeometry relative="1" as="geometry" />
        </mxCell>
        <mxCell id="vvAao26VKhlbJRDWfg8w-18" style="edgeStyle=orthogonalEdgeStyle;rounded=0;orthogonalLoop=1;jettySize=auto;html=1;exitX=0.75;exitY=0;exitDx=0;exitDy=0;entryX=0.167;entryY=0;entryDx=0;entryDy=0;entryPerimeter=0;" edge="1" parent="1" source="vvAao26VKhlbJRDWfg8w-4" target="vvAao26VKhlbJRDWfg8w-4">
          <mxGeometry relative="1" as="geometry">
            <mxPoint x="650" y="180" as="targetPoint" />
            <Array as="points">
              <mxPoint x="720" y="140" />
              <mxPoint x="650" y="140" />
            </Array>
          </mxGeometry>
        </mxCell>
        <mxCell id="vvAao26VKhlbJRDWfg8w-23" style="edgeStyle=orthogonalEdgeStyle;rounded=0;orthogonalLoop=1;jettySize=auto;html=1;exitX=1;exitY=0.75;exitDx=0;exitDy=0;entryX=0.25;entryY=0;entryDx=0;entryDy=0;" edge="1" parent="1" source="vvAao26VKhlbJRDWfg8w-4" target="vvAao26VKhlbJRDWfg8w-6">
          <mxGeometry relative="1" as="geometry" />
        </mxCell>
        <mxCell id="vvAao26VKhlbJRDWfg8w-4" value="COMS2015A;&lt;br&gt;&lt;b&gt;Opened for Enrollment&lt;/b&gt;" style="rounded=1;whiteSpace=wrap;html=1;" vertex="1" parent="1">
          <mxGeometry x="630" y="190" width="120" height="60" as="geometry" />
        </mxCell>
        <mxCell id="vvAao26VKhlbJRDWfg8w-16" style="edgeStyle=orthogonalEdgeStyle;rounded=0;orthogonalLoop=1;jettySize=auto;html=1;exitX=0.75;exitY=0;exitDx=0;exitDy=0;entryX=0.833;entryY=1;entryDx=0;entryDy=0;entryPerimeter=0;" edge="1" parent="1" source="vvAao26VKhlbJRDWfg8w-5" target="vvAao26VKhlbJRDWfg8w-4">
          <mxGeometry relative="1" as="geometry" />
        </mxCell>
        <mxCell id="vvAao26VKhlbJRDWfg8w-17" style="edgeStyle=orthogonalEdgeStyle;rounded=0;orthogonalLoop=1;jettySize=auto;html=1;exitX=0;exitY=0.5;exitDx=0;exitDy=0;entryX=0;entryY=0.75;entryDx=0;entryDy=0;" edge="1" parent="1" source="vvAao26VKhlbJRDWfg8w-5" target="vvAao26VKhlbJRDWfg8w-4">
          <mxGeometry relative="1" as="geometry">
            <Array as="points">
              <mxPoint x="520" y="410" />
              <mxPoint x="520" y="235" />
            </Array>
          </mxGeometry>
        </mxCell>
        <mxCell id="vvAao26VKhlbJRDWfg8w-24" style="edgeStyle=orthogonalEdgeStyle;rounded=0;orthogonalLoop=1;jettySize=auto;html=1;exitX=1;exitY=0.5;exitDx=0;exitDy=0;entryX=0;entryY=0.5;entryDx=0;entryDy=0;" edge="1" parent="1" source="vvAao26VKhlbJRDWfg8w-5" target="vvAao26VKhlbJRDWfg8w-6">
          <mxGeometry relative="1" as="geometry" />
        </mxCell>
        <mxCell id="vvAao26VKhlbJRDWfg8w-30" style="edgeStyle=orthogonalEdgeStyle;rounded=0;orthogonalLoop=1;jettySize=auto;html=1;exitX=0.5;exitY=1;exitDx=0;exitDy=0;" edge="1" parent="1" source="vvAao26VKhlbJRDWfg8w-5">
          <mxGeometry relative="1" as="geometry">
            <mxPoint x="700" y="620" as="targetPoint" />
          </mxGeometry>
        </mxCell>
        <mxCell id="vvAao26VKhlbJRDWfg8w-5" value="COMS2015A;&lt;br&gt;&lt;b&gt;&lt;font style=&quot;font-size: 14px&quot;&gt;Full&lt;/font&gt;&lt;/b&gt;" style="rounded=1;whiteSpace=wrap;html=1;" vertex="1" parent="1">
          <mxGeometry x="640" y="380" width="120" height="60" as="geometry" />
        </mxCell>
        <mxCell id="vvAao26VKhlbJRDWfg8w-27" style="edgeStyle=orthogonalEdgeStyle;rounded=0;orthogonalLoop=1;jettySize=auto;html=1;exitX=0.5;exitY=1;exitDx=0;exitDy=0;entryX=0.417;entryY=0.017;entryDx=0;entryDy=0;entryPerimeter=0;" edge="1" parent="1" source="vvAao26VKhlbJRDWfg8w-6" target="vvAao26VKhlbJRDWfg8w-7">
          <mxGeometry relative="1" as="geometry" />
        </mxCell>
        <mxCell id="vvAao26VKhlbJRDWfg8w-6" value="COMS2015A;&lt;br&gt;&lt;b&gt;Closed for Enrollment&lt;/b&gt;" style="rounded=1;whiteSpace=wrap;html=1;" vertex="1" parent="1">
          <mxGeometry x="890" y="380" width="120" height="60" as="geometry" />
        </mxCell>
        <mxCell id="vvAao26VKhlbJRDWfg8w-7" value="" style="rounded=1;whiteSpace=wrap;html=1;" vertex="1" parent="1">
          <mxGeometry x="900" y="580" width="120" height="60" as="geometry" />
        </mxCell>
        <mxCell id="vvAao26VKhlbJRDWfg8w-10" value="Scheduled" style="text;html=1;align=center;verticalAlign=middle;resizable=0;points=[];autosize=1;" vertex="1" parent="1">
          <mxGeometry x="250" y="200" width="70" height="20" as="geometry" />
        </mxCell>
        <mxCell id="vvAao26VKhlbJRDWfg8w-14" value="Open" style="text;html=1;align=center;verticalAlign=middle;resizable=0;points=[];autosize=1;" vertex="1" parent="1">
          <mxGeometry x="540" y="200" width="40" height="20" as="geometry" />
        </mxCell>
        <mxCell id="vvAao26VKhlbJRDWfg8w-19" value="StudentEnrolled&lt;br&gt;[StudentNum&amp;lt;MaxSeat]&lt;br&gt;StudentNum++" style="text;html=1;align=center;verticalAlign=middle;resizable=0;points=[];autosize=1;" vertex="1" parent="1">
          <mxGeometry x="610" y="90" width="140" height="50" as="geometry" />
        </mxCell>
        <mxCell id="vvAao26VKhlbJRDWfg8w-20" value="StudentEnrolled&lt;br&gt;[StudentNum&amp;gt;MaxSeat]&lt;br&gt;StudentNum++" style="text;html=1;align=center;verticalAlign=middle;resizable=0;points=[];autosize=1;" vertex="1" parent="1">
          <mxGeometry x="520" y="270" width="140" height="50" as="geometry" />
        </mxCell>
        <mxCell id="vvAao26VKhlbJRDWfg8w-21" value="Seminar Split" style="text;html=1;align=center;verticalAlign=middle;resizable=0;points=[];autosize=1;" vertex="1" parent="1">
          <mxGeometry x="530" y="410" width="90" height="20" as="geometry" />
        </mxCell>
        <mxCell id="vvAao26VKhlbJRDWfg8w-22" value="SeatAvailable" style="text;html=1;align=center;verticalAlign=middle;resizable=0;points=[];autosize=1;" vertex="1" parent="1">
          <mxGeometry x="730" y="296" width="90" height="20" as="geometry" />
        </mxCell>
        <mxCell id="vvAao26VKhlbJRDWfg8w-25" value="Closed" style="text;html=1;align=center;verticalAlign=middle;resizable=0;points=[];autosize=1;" vertex="1" parent="1">
          <mxGeometry x="806" y="390" width="50" height="20" as="geometry" />
        </mxCell>
        <mxCell id="vvAao26VKhlbJRDWfg8w-26" value="Closed" style="text;html=1;align=center;verticalAlign=middle;resizable=0;points=[];autosize=1;" vertex="1" parent="1">
          <mxGeometry x="870" y="240" width="50" height="20" as="geometry" />
        </mxCell>
        <mxCell id="vvAao26VKhlbJRDWfg8w-31" value="Cancelled" style="text;html=1;align=center;verticalAlign=middle;resizable=0;points=[];autosize=1;" vertex="1" parent="1">
          <mxGeometry x="413" y="516" width="70" height="20" as="geometry" />
        </mxCell>
      </root>
    </mxGraphModel>
  </diagram>
</mxfile>
